<svg width="5" height="11" viewBox="0 0 5 11" fill="none" xmlns="http://www.w3.org/2000/svg">
<path fill-rule="evenodd" clip-rule="evenodd" d="M2.5 0C2.84518 0 3.125 0.324271 3.125 0.724279L3.125 10.2757C3.125 10.6757 2.84518 11 2.5 11C2.15482 11 1.875 10.6757 1.875 10.2757L1.875 0.724279C1.875 0.324271 2.15482 0 2.5 0Z" fill="#6772E5"/>
<path fill-rule="evenodd" clip-rule="evenodd" d="M2.94194 10.7879C2.69786 11.0707 2.30214 11.0707 2.05806 10.7879L0.183058 8.61502C-0.0610194 8.33218 -0.0610194 7.87359 0.183058 7.59074C0.427136 7.30789 0.822865 7.30789 1.06694 7.59074L2.5 9.25143L3.93306 7.59074C4.17714 7.30789 4.57286 7.30789 4.81694 7.59074C5.06102 7.87359 5.06102 8.33218 4.81694 8.61502L2.94194 10.7879Z" fill="#6772E5"/>
</svg>
