<svg width="13" height="13" viewBox="0 0 13 13" fill="none" xmlns="http://www.w3.org/2000/svg">
<path d="M3.9753 7.53756L6.50014 10.0614L9.026 7.5355L10.4943 9.00482L6.50014 13L2.50598 9.00584L3.9753 7.53756Z" fill="#F3BA2F"/>
<path d="M1.46878 7.96853L0 6.49976L1.46878 5.03098L2.93756 6.49976L1.46878 7.96853Z" fill="#F3BA2F"/>
<path d="M3.97528 5.46247L6.50012 2.93763L9.02598 5.4635L10.4953 3.99624L10.4943 3.99521L6.50012 3.05176e-05L2.50596 3.99316L2.50391 3.99521L3.97528 5.46247Z" fill="#F3BA2F"/>
<path d="M11.5309 7.96805L10.0621 6.49927L11.5309 5.03049L12.9997 6.49927L11.5309 7.96805Z" fill="#F3BA2F"/>
<path d="M7.98993 6.50058L6.50008 7.99146L5.39835 6.88973L5.27103 6.76343L5.01023 6.50263L5.00818 6.50058L5.01023 6.4975L6.50008 5.00867L7.98993 6.49955L7.99096 6.50058H7.98993Z" fill="#F3BA2F"/>
</svg>
