<svg width="12" height="9" viewBox="0 0 12 9" fill="none" xmlns="http://www.w3.org/2000/svg">
<path fill-rule="evenodd" clip-rule="evenodd" d="M-8.10878e-08 6.21927C-9.22837e-08 5.96314 0.207636 5.7555 0.463768 5.7555L7.88406 5.7555C8.14019 5.7555 8.34783 5.96314 8.34783 6.21927C8.34783 6.4754 8.14019 6.68304 7.88406 6.68304L0.463768 6.68304C0.207636 6.68304 -6.98919e-08 6.4754 -8.10878e-08 6.21927Z" fill="#6772E5"/>
<path fill-rule="evenodd" clip-rule="evenodd" d="M3.65217 1.85507C3.65217 1.59894 3.85981 1.3913 4.11594 1.3913L11.5362 1.3913C11.7924 1.3913 12 1.59894 12 1.85507C12 2.1112 11.7924 2.31884 11.5362 2.31884L4.11594 2.31884C3.85981 2.31884 3.65217 2.1112 3.65217 1.85507Z" fill="#6772E5"/>
<path fill-rule="evenodd" clip-rule="evenodd" d="M0.135834 6.5472C-0.0452783 6.36609 -0.0452783 6.07245 0.135834 5.89133L1.52714 4.50003C1.70825 4.31892 2.00189 4.31892 2.18301 4.50003C2.36412 4.68114 2.36412 4.97478 2.18301 5.1559L1.11964 6.21927L2.18301 7.28264C2.36412 7.46375 2.36412 7.75739 2.18301 7.93851C2.00189 8.11962 1.70825 8.11962 1.52714 7.93851L0.135834 6.5472Z" fill="#6772E5"/>
<path fill-rule="evenodd" clip-rule="evenodd" d="M11.8642 1.52714C12.0453 1.70825 12.0453 2.00189 11.8642 2.183L10.4729 3.57431C10.2917 3.75542 9.99811 3.75542 9.81699 3.57431C9.63588 3.3932 9.63588 3.09955 9.81699 2.91844L10.8804 1.85507L9.81699 0.791699C9.63588 0.610586 9.63588 0.316945 9.81699 0.135832C9.99811 -0.0452809 10.2917 -0.0452809 10.4729 0.135832L11.8642 1.52714Z" fill="#6772E5"/>
</svg>
