<svg width="12" height="12" viewBox="0 0 12 12" fill="none" xmlns="http://www.w3.org/2000/svg">
<path d="M6 0C2.6916 0 0 2.69164 0 6.00004C0 9.30844 2.6916 12 6 12C9.3084 12 12 9.30844 12 6.00004C12 2.69164 9.3084 0 6 0ZM6 10.9091C3.29309 10.9091 1.09091 8.70691 1.09091 6.00004C1.09091 3.29316 3.29309 1.09091 6 1.09091C8.70691 1.09091 10.9091 3.29316 10.9091 6.00004C10.9091 8.70691 8.70687 10.9091 6 10.9091Z" fill="#A9A9A9"/>
<path d="M5.99983 2.54553C5.59889 2.54553 5.27271 2.87193 5.27271 3.27313C5.27271 3.67397 5.59889 4.00008 5.99983 4.00008C6.40078 4.00008 6.72696 3.67397 6.72696 3.27313C6.72696 2.87193 6.40078 2.54553 5.99983 2.54553Z" fill="#A9A9A9"/>
<path d="M6.00017 5.09082C5.69893 5.09082 5.45471 5.33504 5.45471 5.63627V8.909C5.45471 9.21024 5.69893 9.45446 6.00017 9.45446C6.3014 9.45446 6.54562 9.21024 6.54562 8.909V5.63627C6.54562 5.33504 6.3014 5.09082 6.00017 5.09082Z" fill="#A9A9A9"/>
</svg>
