<svg width="10" height="12" viewBox="0 0 10 12" fill="none" xmlns="http://www.w3.org/2000/svg">
<path fill-rule="evenodd" clip-rule="evenodd" d="M8.22287 0.412231C8.54602 1.17965 7.52711 1.97553 7.05777 1.81949C6.86322 1.75472 6.66757 1.67622 6.4994 1.69094C6.40064 1.70647 6.30529 1.73595 6.21692 1.77828L6.48401 2.09329C6.48401 2.09329 7.07646 2.40634 7.4128 2.59182C7.45481 2.61589 7.50569 2.62434 7.55459 2.61537C8.59658 2.40634 8.90215 0.896039 8.22287 0.412231Z" fill="#6772E5"/>
<path fill-rule="evenodd" clip-rule="evenodd" d="M9.59964 8.89892C6.75283 8.40824 3.83568 5.64181 5.55805 5.4789C6.60884 5.38077 6.68468 4.24043 8.19602 4.85182C8.23846 4.86899 8.28435 4.87831 8.33093 4.87922C8.37751 4.88013 8.42382 4.87261 8.46706 4.85711C8.51029 4.84162 8.54957 4.81846 8.58252 4.78905C8.61547 4.75963 8.6414 4.72457 8.65876 4.68597L8.98851 3.99313C9.06325 3.79686 9.05116 3.50245 8.89288 3.35918C8.70493 3.19038 8.27955 3.23356 8.085 3.12954C7.63215 2.88911 6.47255 2.22964 6.39341 2.19136C6.31427 2.15309 6.13181 1.84495 6.05597 1.8106C5.93783 1.75218 5.8124 1.7064 5.68226 1.67419C5.48975 1.63762 5.28954 1.65089 5.1052 1.71246C4.40064 1.90186 1.69783 2.59568 2.83655 0C2.83655 0 0.257937 2.01766 2.71235 3.06673C2.73172 3.07611 2.7481 3.08974 2.75993 3.10634C2.77177 3.12294 2.77867 3.14196 2.77999 3.1616C2.78131 3.18124 2.77701 3.20086 2.76748 3.2186C2.75795 3.23634 2.74351 3.25162 2.72553 3.263C1.95063 3.69382 -0.826927 5.38273 0.24145 9.03533C0.982279 10.2777 3.00142 11.2924 5.71633 12C6.6682 11.6781 9.10941 9.86948 9.59964 8.89892Z" fill="#6772E5"/>
<path opacity="0.2" fill-rule="evenodd" clip-rule="evenodd" d="M5.55634 5.47897C6.60713 5.38083 6.68297 4.2405 8.1943 4.85188C8.23672 4.8692 8.28263 4.87863 8.32926 4.87961C8.37588 4.88059 8.42224 4.8731 8.46553 4.85759C8.50881 4.84208 8.5481 4.81887 8.58103 4.78938C8.61395 4.75989 8.63981 4.72473 8.65705 4.68604L8.98679 3.9932C9.06154 3.79693 9.04835 3.50252 8.89007 3.35924C8.78785 3.267 8.61308 3.23756 8.42733 3.21106C9.22751 3.48682 8.50207 4.46916 8.26355 4.46032C7.97997 4.45149 7.49414 3.91469 6.90939 3.90488C6.32465 3.89506 5.98611 4.82146 5.20351 4.88623C4.00543 4.98437 3.92849 3.56925 3.19316 4.18751C2.45783 4.80576 0.149605 9.25522 5.71462 12.0001C6.67198 11.6743 9.1088 9.86955 9.59792 8.89899C6.75222 8.40439 3.83397 5.64187 5.55634 5.47897Z" fill="#224099"/>
<path fill-rule="evenodd" clip-rule="evenodd" d="M8.22287 0.412231C8.54602 1.17965 7.52711 1.97553 7.05777 1.81949C6.86322 1.75472 6.66757 1.67622 6.4994 1.69094C6.40064 1.70647 6.30529 1.73595 6.21692 1.77828L6.48401 2.09329C6.48401 2.09329 7.07646 2.40634 7.4128 2.59182C7.45481 2.61589 7.50569 2.62434 7.55459 2.61537C8.59658 2.40634 8.90215 0.896039 8.22287 0.412231Z" fill="#6772E5"/>
<path fill-rule="evenodd" clip-rule="evenodd" d="M9.59964 8.89892C6.75283 8.40824 3.83568 5.64181 5.55805 5.4789C6.60884 5.38077 6.68468 4.24043 8.19602 4.85182C8.23846 4.86899 8.28435 4.87831 8.33093 4.87922C8.37751 4.88013 8.42382 4.87261 8.46706 4.85711C8.51029 4.84162 8.54957 4.81846 8.58252 4.78905C8.61547 4.75963 8.6414 4.72457 8.65876 4.68597L8.98851 3.99313C9.06325 3.79686 9.05116 3.50245 8.89288 3.35918C8.70493 3.19038 8.27955 3.23356 8.085 3.12954C7.63215 2.88911 6.47255 2.22964 6.39341 2.19136C6.31427 2.15309 6.13181 1.84495 6.05597 1.8106C5.93783 1.75218 5.8124 1.7064 5.68226 1.67419C5.48975 1.63762 5.28954 1.65089 5.1052 1.71246C4.40064 1.90186 1.69783 2.59568 2.83655 0C2.83655 0 0.257937 2.01766 2.71235 3.06673C2.73172 3.07611 2.7481 3.08974 2.75993 3.10634C2.77177 3.12294 2.77867 3.14196 2.77999 3.1616C2.78131 3.18124 2.77701 3.20086 2.76748 3.2186C2.75795 3.23634 2.74351 3.25162 2.72553 3.263C1.95063 3.69382 -0.826927 5.38273 0.24145 9.03533C0.982279 10.2777 3.00142 11.2924 5.71633 12C6.6682 11.6781 9.10941 9.86948 9.59964 8.89892Z" fill="#6772E5"/>
<path opacity="0.2" fill-rule="evenodd" clip-rule="evenodd" d="M5.55634 5.47897C6.60713 5.38083 6.68297 4.2405 8.1943 4.85188C8.23672 4.8692 8.28263 4.87863 8.32926 4.87961C8.37588 4.88059 8.42224 4.8731 8.46553 4.85759C8.50881 4.84208 8.5481 4.81887 8.58103 4.78938C8.61395 4.75989 8.63981 4.72473 8.65705 4.68604L8.98679 3.9932C9.06154 3.79693 9.04835 3.50252 8.89007 3.35924C8.78785 3.267 8.61308 3.23756 8.42733 3.21106C9.22751 3.48682 8.50207 4.46916 8.26355 4.46032C7.97997 4.45149 7.49414 3.91469 6.90939 3.90488C6.32465 3.89506 5.98611 4.82146 5.20351 4.88623C4.00543 4.98437 3.92849 3.56925 3.19316 4.18751C2.45783 4.80576 0.149605 9.25522 5.71462 12.0001C6.67198 11.6743 9.1088 9.86955 9.59792 8.89899C6.75222 8.40439 3.83397 5.64187 5.55634 5.47897Z" fill="#224099"/>
<g opacity="0.2">
<path opacity="0.2" fill-rule="evenodd" clip-rule="evenodd" d="M9.59788 8.89898C6.93024 8.4397 4.20104 5.97945 5.28701 5.53882C4.70006 5.75864 3.95593 6.6399 3.95593 8.10702C3.95593 9.66051 5.08146 11.2856 5.71458 11.9991C6.62468 11.689 8.89223 10.0275 9.51984 9.03342C9.5704 8.94706 9.59678 8.89799 9.59678 8.89799L9.59788 8.89898Z" fill="#224099"/>
</g>
</svg>
