<svg width="250" height="250" viewBox="0 0 250 250" fill="none" xmlns="http://www.w3.org/2000/svg">
<path d="M125.009 0H124.991C55.9603 0 0 55.9603 0 124.991V125.009C0 194.04 55.9603 250 124.991 250H125.009C194.04 250 250 194.04 250 125.009V124.991C250 55.9603 194.04 0 125.009 0Z" fill="#ffaa07"/>
<path fill-rule="evenodd" clip-rule="evenodd" d="M175.562 32.5699C180.332 45.2639 165.3 58.4218 158.359 55.8422C155.482 54.7658 152.606 53.4667 150.1 53.7079C148.642 53.9728 147.234 54.461 145.925 55.1555L149.84 60.3704C149.84 60.3704 158.6 65.5482 163.574 68.6289C164.197 69.0227 164.948 69.1623 165.671 69.0186C181.093 65.5482 185.584 40.5501 175.562 32.5699Z" fill="white"/>
<path fill-rule="evenodd" clip-rule="evenodd" d="M195.902 172.946C153.849 164.78 110.756 119.126 136.2 116.38C151.715 114.746 152.903 95.9654 175.173 106.005C175.799 106.288 176.477 106.44 177.164 106.454C177.852 106.468 178.535 106.343 179.172 106.087C179.81 105.83 180.39 105.448 180.876 104.962C181.362 104.476 181.745 103.897 182.002 103.259L186.864 91.7898C187.978 88.5792 187.774 83.6798 185.435 81.3228C182.67 78.5205 176.379 79.2257 173.521 77.6112C166.821 73.6211 149.692 62.7645 148.541 62.0778C147.391 61.3911 144.755 56.269 143.605 55.6752C141.842 54.7091 139.974 53.9494 138.037 53.411C135.194 52.816 132.239 53.0412 129.519 54.0606C119.145 57.2155 79.3 68.666 96.0396 25.7405C96.0396 25.7405 57.9764 59.1456 94.1838 76.4791C94.5042 76.6111 94.7811 76.8302 94.9834 77.1115C95.1857 77.3928 95.3052 77.7251 95.3284 78.0708C95.3516 78.4165 95.2775 78.7618 95.1146 79.0676C94.9516 79.3734 94.7064 79.6275 94.4065 79.801C82.9189 86.8532 41.8863 114.784 57.6609 175.21C68.6104 195.772 98.4894 212.549 138.538 224.259C152.606 218.878 188.665 189.017 195.902 172.946Z" fill="white"/>
<path fill-rule="evenodd" clip-rule="evenodd" d="M136.182 116.38C151.696 114.746 152.884 95.9654 175.154 106.005C175.781 106.288 176.458 106.44 177.146 106.454C177.833 106.468 178.516 106.343 179.154 106.087C179.792 105.83 180.371 105.448 180.857 104.962C181.344 104.476 181.727 103.897 181.984 103.259L186.846 91.7897C187.959 88.5791 187.755 83.6797 185.417 81.3228C183.914 79.7825 181.334 79.3 178.587 78.8546C190.409 83.4199 179.701 99.6585 176.175 99.5286C171.999 99.3801 164.836 90.5092 156.187 90.2494C147.539 89.9896 142.528 105.393 130.985 106.469C113.28 108.121 112.148 84.7004 101.292 94.9261C90.4351 105.152 56.2877 178.754 138.409 224.167C152.531 218.766 188.516 188.906 195.772 172.853C153.831 164.78 110.738 119.071 136.182 116.38Z" fill="#D0D2D3"/>
<path fill-rule="evenodd" clip-rule="evenodd" d="M195.884 172.946C156.466 165.262 116.083 124.694 132.21 117.363C123.543 121.075 112.482 135.569 112.482 159.843C112.482 185.547 129.185 212.438 138.464 224.241C151.9 219.1 185.38 191.615 194.659 175.173C195.401 173.762 195.809 172.927 195.809 172.927L195.884 172.946Z" fill="#BBBDBF"/>
<rect x="44.5402" y="176.305" width="159.602" height="35.4503" rx="10" fill="#6772E5"/>
<path d="M94.4608 184.536C91.8928 184.536 89.7328 184.608 88.0288 184.728C87.7408 184.752 87.6688 184.8 87.6688 185.064V202.584C87.6688 202.848 87.7408 202.896 88.0288 202.92C89.9488 203.064 92.3008 203.136 95.1088 203.136C97.2928 203.136 98.8768 202.776 99.8608 202.08C100.845 201.36 101.349 200.04 101.349 198.144C101.349 195.624 100.605 194.112 98.5168 193.824V193.752C100.221 193.392 100.893 192.12 100.893 189.624C100.893 187.728 100.389 186.408 99.3568 185.664C98.3488 184.92 96.7168 184.536 94.4608 184.536ZM94.1728 187.224C96.7888 187.224 97.7968 187.824 97.7968 190.008C97.7968 191.184 97.5088 191.904 96.9088 192.216C96.3328 192.528 95.1808 192.672 93.4768 192.672H90.7648V187.224H94.1728ZM95.0608 195C97.2448 195 98.2528 195.648 98.2528 197.856C98.2528 199.872 97.3408 200.448 95.0128 200.448H90.7648V195H95.0608ZM104.669 184.656C104.429 184.656 104.309 184.776 104.309 185.016V202.656C104.309 202.896 104.429 203.016 104.669 203.016H116.285C116.549 203.016 116.669 202.896 116.669 202.656V200.688C116.669 200.448 116.549 200.328 116.285 200.328H107.405V195.336H115.517C115.757 195.336 115.877 195.216 115.877 194.976V193.08C115.877 192.84 115.757 192.72 115.517 192.72H107.405V187.344H116.285C116.549 187.344 116.669 187.224 116.669 186.984V185.016C116.669 184.776 116.549 184.656 116.285 184.656H104.669ZM125.734 184.536C123.622 184.536 121.702 184.608 119.998 184.728C119.71 184.752 119.638 184.8 119.638 185.064V202.656C119.638 202.944 119.71 203.016 119.998 203.016H122.374C122.662 203.016 122.734 202.944 122.734 202.656V196.272H125.734C128.014 196.272 129.334 196.152 130.51 195.696C131.11 195.456 131.59 195.12 131.902 194.688C132.55 193.8 132.862 192.528 132.862 190.512C132.862 188.136 132.358 186.528 131.35 185.736C130.342 184.944 128.47 184.536 125.734 184.536ZM125.446 187.224C127.198 187.224 128.35 187.44 128.902 187.848C129.454 188.256 129.742 189.168 129.742 190.584C129.742 192.096 129.598 192.816 128.854 193.296C128.11 193.752 127.342 193.8 125.446 193.8H122.734V187.224H125.446ZM140.401 184.536C138.985 184.536 137.425 184.656 135.697 184.896C135.481 184.968 135.385 185.088 135.385 185.28V187.008C135.385 187.152 135.457 187.224 135.601 187.224H140.185C142.681 187.224 143.857 187.608 143.857 189.216V190.368C143.857 191.496 143.689 192.12 142.945 192.576L137.521 195.84C136.369 196.536 135.577 197.208 135.121 197.808C134.689 198.408 134.473 199.224 134.473 200.208V202.344C134.473 202.8 134.689 203.016 135.097 203.016H146.953C147.049 203.016 147.097 202.968 147.097 202.872V200.448C147.097 200.352 147.049 200.304 146.929 200.304H138.361V199.68C138.361 198.792 138.673 198.312 139.729 197.76L144.649 194.928C145.585 194.376 146.209 193.776 146.497 193.128C146.785 192.48 146.929 191.664 146.929 190.68V188.76C146.929 186.528 145.849 185.448 144.145 184.944C142.969 184.584 141.937 184.536 140.401 184.536ZM156.394 184.536C153.586 184.536 151.954 185.016 150.898 186.528C149.866 188.04 149.554 190.128 149.554 193.872C149.554 197.496 150.01 199.968 150.922 201.24C151.834 202.512 153.658 203.136 156.394 203.136C159.754 203.088 161.506 202.416 162.442 200.232C163.018 198.72 163.258 196.848 163.258 193.872C163.21 189.504 162.826 187.128 161.194 185.736C160.138 184.896 158.674 184.536 156.394 184.536ZM152.626 193.872C152.626 191.28 152.866 189.528 153.37 188.616C153.874 187.68 154.882 187.224 156.394 187.224C157.906 187.224 158.914 187.68 159.418 188.616C159.922 189.528 160.186 191.28 160.186 193.872C160.186 196.44 159.922 198.192 159.418 199.104C158.914 199.992 157.906 200.448 156.394 200.448C154.882 200.448 153.874 199.992 153.37 199.104C152.866 198.192 152.626 196.44 152.626 193.872Z" fill="white"/>
</svg>
