<svg width="170" height="67" viewBox="0 0 170 67" fill="none" xmlns="http://www.w3.org/2000/svg">
<path fill-rule="evenodd" clip-rule="evenodd" d="M38.3214 2.15277C39.8286 6.15267 35.0842 10.3054 32.8911 9.49321C31.9868 9.15697 31.0781 8.74213 30.2698 8.82073C29.8116 8.90396 29.3694 9.05869 28.9592 9.27924L30.2087 10.9168C30.2087 10.9168 32.9697 12.5499 34.5381 13.5368C34.6346 13.5996 34.7425 13.6427 34.8557 13.6637C34.9689 13.6847 35.0852 13.6831 35.1978 13.659C40.0645 12.5543 41.5018 4.67236 38.3214 2.15277Z" fill="#fff"/>
<path fill-rule="evenodd" clip-rule="evenodd" d="M44.7343 46.4268C31.4534 43.8461 17.8754 29.4316 25.9007 28.5845C30.7981 28.0648 31.1432 22.1217 38.2161 25.3138C38.4143 25.4028 38.6284 25.4508 38.8456 25.4549C39.0628 25.4589 39.2785 25.4189 39.4798 25.3373C39.6811 25.2556 39.8637 25.1341 40.0167 24.98C40.1697 24.8258 40.2899 24.6423 40.3699 24.4405L41.9033 20.8248C42.2528 19.8118 42.1917 18.2703 41.4665 17.5236C40.5927 16.6503 38.6093 16.8642 37.705 16.3228C35.5905 15.0651 30.1908 11.6285 29.8413 11.4277C29.4918 11.2268 28.6224 9.61986 28.2686 9.44082C27.7147 9.13859 27.1285 8.89982 26.5211 8.72905C25.6248 8.53683 24.6921 8.60657 23.8343 8.92992C20.5316 9.92116 7.94528 13.5368 13.2314 0C13.2314 0 1.21745 10.5238 12.6548 15.9996C12.7507 16.0472 12.8323 16.1193 12.8913 16.2086C12.9504 16.2979 12.9847 16.4012 12.9909 16.5081C12.9971 16.6149 12.975 16.7215 12.9267 16.817C12.8784 16.9126 12.8057 16.9936 12.7159 17.052C9.08989 19.2703 -3.85463 28.0823 1.12571 47.1604C4.577 53.645 13.9872 58.9506 26.639 62.623C31.0777 60.9068 42.4538 51.4878 44.7343 46.4268Z" fill="#fff"/>
<path opacity="0.2" fill-rule="evenodd" clip-rule="evenodd" d="M25.8968 28.5845C30.7942 28.0649 31.1393 22.1218 38.2122 25.3138C38.4104 25.4029 38.6245 25.4509 38.8417 25.4549C39.0588 25.4589 39.2746 25.4189 39.4759 25.3373C39.6772 25.2557 39.8598 25.1341 40.0128 24.98C40.1658 24.8259 40.286 24.6423 40.366 24.4405L41.8994 20.8249C42.2489 19.8118 42.1878 18.2703 41.4626 17.5236C40.9733 17.0302 40.1607 16.8905 39.3175 16.7507C43.044 18.1917 39.667 23.3008 38.553 23.2702C37.2424 23.2222 34.9794 20.4231 32.2446 20.3751C29.5098 20.3271 27.9195 25.1523 24.2717 25.4885C18.6884 26.0125 18.3477 18.6197 14.9008 21.8336C11.4538 25.0475 0.702412 48.2827 26.6482 62.6012C31.1043 60.9025 42.463 51.4879 44.7435 46.4443C31.4538 43.8462 17.8715 29.4316 25.8968 28.5845Z" fill="#fff"/>
<path fill-rule="evenodd" clip-rule="evenodd" d="M38.3214 2.15277C39.8286 6.15267 35.0842 10.3054 32.8911 9.49321C31.9868 9.15697 31.0781 8.74213 30.2698 8.82073C29.8116 8.90396 29.3694 9.05869 28.9592 9.27924L30.2087 10.9168C30.2087 10.9168 32.9697 12.5499 34.5381 13.5368C34.6346 13.5996 34.7425 13.6427 34.8557 13.6637C34.9689 13.6847 35.0852 13.6831 35.1978 13.659C40.0645 12.5543 41.5018 4.67236 38.3214 2.15277Z" fill="#fff"/>
<path fill-rule="evenodd" clip-rule="evenodd" d="M44.7343 46.4268C31.4534 43.8461 17.8754 29.4316 25.9007 28.5845C30.7981 28.0648 31.1432 22.1217 38.2161 25.3138C38.4143 25.4028 38.6284 25.4508 38.8456 25.4549C39.0628 25.4589 39.2785 25.4189 39.4798 25.3373C39.6811 25.2556 39.8637 25.1341 40.0167 24.98C40.1697 24.8258 40.2899 24.6423 40.3699 24.4405L41.9033 20.8248C42.2528 19.8118 42.1917 18.2703 41.4665 17.5236C40.5927 16.6503 38.6093 16.8642 37.705 16.3228C35.5905 15.0651 30.1908 11.6285 29.8413 11.4277C29.4918 11.2268 28.6224 9.61986 28.2686 9.44082C27.7147 9.13859 27.1285 8.89982 26.5211 8.72905C25.6248 8.53683 24.6921 8.60657 23.8343 8.92992C20.5316 9.92116 7.94528 13.5368 13.2314 0C13.2314 0 1.21745 10.5238 12.6548 15.9996C12.7507 16.0472 12.8323 16.1193 12.8913 16.2086C12.9504 16.2979 12.9847 16.4012 12.9909 16.5081C12.9971 16.6149 12.975 16.7215 12.9267 16.817C12.8784 16.9126 12.8057 16.9936 12.7159 17.052C9.08989 19.2703 -3.85463 28.0823 1.12571 47.1604C4.577 53.645 13.9872 58.9506 26.639 62.623C31.0777 60.9068 42.4538 51.4878 44.7343 46.4268Z" fill="#fff"/>
<path opacity="0.2" fill-rule="evenodd" clip-rule="evenodd" d="M25.8968 28.5845C30.7942 28.0649 31.1393 22.1218 38.2122 25.3138C38.4104 25.4029 38.6245 25.4509 38.8417 25.4549C39.0588 25.4589 39.2746 25.4189 39.4759 25.3373C39.6772 25.2557 39.8598 25.1341 40.0128 24.98C40.1658 24.8259 40.286 24.6423 40.366 24.4405L41.8994 20.8249C42.2489 19.8118 42.1878 18.2703 41.4626 17.5236C40.9733 17.0302 40.1607 16.8905 39.3175 16.7507C43.044 18.1917 39.667 23.3008 38.553 23.2702C37.2424 23.2222 34.9794 20.4231 32.2446 20.3751C29.5098 20.3271 27.9195 25.1523 24.2717 25.4885C18.6884 26.0125 18.3477 18.6197 14.9008 21.8336C11.4538 25.0475 0.702412 48.2827 26.6482 62.6012C31.1043 60.9025 42.463 51.4879 44.7435 46.4443C31.4538 43.8462 17.8715 29.4316 25.8968 28.5845Z" fill="#fff"/>
<g opacity="0.2">
<path opacity="0.2" fill-rule="evenodd" clip-rule="evenodd" d="M44.7303 46.4225C32.2969 44.0033 19.5796 31.1914 24.6342 28.8989C21.9081 30.0429 18.4219 34.6367 18.4219 42.2916C18.4219 50.3962 23.6643 58.8851 26.6351 62.6011C30.8727 60.9854 41.4407 52.3175 44.3677 47.1299C44.6036 46.6932 44.7259 46.4268 44.7259 46.4268L44.7303 46.4225Z" fill="#fff"/>
</g>
<path d="M69.6451 37.8506H73.8303C73.3486 39.9965 72.1074 41.8962 70.3354 43.1998C68.6054 44.4778 66.4327 45.1183 63.8172 45.1212C60.6426 45.1212 58.167 44.0906 56.3904 42.0295C54.6051 40.0238 53.7124 37.1563 53.7124 33.4271C53.7124 29.8639 54.576 27.0794 56.3031 25.0736C58.0855 23.0125 60.5611 21.982 63.7299 21.982C67.0705 21.982 69.6597 22.9849 71.4975 24.9907C73.2799 27.0517 74.1726 29.9192 74.1755 33.5931V34.497C74.1886 34.696 74.1588 34.8956 74.0881 35.0821H59.6145C59.6699 36.8113 60.0878 38.0922 60.8684 38.9248C61.5936 39.8156 62.6799 40.261 64.1274 40.261C64.9736 40.2878 65.8113 40.0856 66.5521 39.6759C66.7185 39.6137 66.8681 39.5135 66.9889 39.3833C67.1287 39.248 67.2816 39.0908 67.4476 38.9467C67.5981 38.6748 67.8144 38.4451 68.0767 38.2785C68.5368 37.9642 69.0891 37.8135 69.6451 37.8506ZM59.5971 31.3398H68.151C68.0374 29.8348 67.6472 28.7198 66.9802 27.995C66.5766 27.5928 66.0922 27.2808 65.559 27.0798C65.0258 26.8788 64.4559 26.7934 63.8871 26.829C63.3325 26.8088 62.7795 26.9017 62.262 27.1022C61.7445 27.3026 61.2733 27.6064 60.8771 27.995C60.0936 28.778 59.6728 29.893 59.6145 31.3398H59.5971Z" fill="#fff"/>
<path d="M75.0754 44.702V40.2742L87.0239 27.0736H78.5835C78.2133 27.0802 77.8455 27.0134 77.5013 26.877C77.1571 26.7405 76.8434 26.5373 76.5783 26.2789C76.3095 26.0287 76.0964 25.7249 75.9527 25.3871C75.8089 25.0494 75.7378 24.6852 75.7439 24.3182V22.4842H93.9614V27.2439L82.1659 39.8549H94.3633V44.702H75.0754Z" fill="#fff"/>
<path d="M95.2984 44.702V18.9777C95.2966 18.5832 95.3729 18.1923 95.5227 17.8273C95.6726 17.4624 95.893 17.1306 96.1715 16.8511C96.45 16.5715 96.7809 16.3497 97.1454 16.1983C97.5099 16.047 97.9006 15.9691 98.2953 15.9691H106.596C110.994 15.9691 114.28 17.1335 116.456 19.4624C118.62 21.9165 119.702 25.5409 119.702 30.3355C119.735 32.6987 119.338 35.0483 118.531 37.2699C117.807 39.16 116.602 40.8289 115.036 42.1125C113.868 43.0293 112.533 43.71 111.104 44.1169C109.768 44.5069 107.729 44.702 104.988 44.702H95.2984ZM101.061 39.5231H105.827C108.553 39.5231 110.558 38.7953 111.843 37.3397C113.066 36.0035 113.679 33.6644 113.682 30.3224C113.682 27.0969 113.099 24.7301 111.934 23.2222C110.822 21.72 109.039 20.9689 106.587 20.9689H101.061V39.5231Z" fill="#fff"/>
<path d="M136.325 37.8506H140.501C140.02 39.9965 138.778 41.8962 137.006 43.1998C135.279 44.4778 133.106 45.1183 130.488 45.1212C127.311 45.1212 124.835 44.0906 123.061 42.0295C121.279 40.0238 120.388 37.1563 120.388 33.4271C120.388 29.8639 121.251 27.0794 122.978 25.0736C124.761 23.0125 127.236 21.982 130.405 21.982C133.746 21.982 136.336 22.9849 138.177 24.9907C139.96 27.0517 140.851 29.9192 140.851 33.5931V34.497C140.863 34.6956 140.834 34.8946 140.768 35.0821H126.299C126.351 36.8113 126.769 38.0922 127.552 38.9248C128.272 39.8156 129.358 40.261 130.811 40.261C131.659 40.2936 132.5 40.0959 133.245 39.689C133.421 39.631 133.58 39.5305 133.708 39.3964L134.167 38.9598C134.314 38.6869 134.529 38.4567 134.791 38.2916C135.24 37.9802 135.779 37.8252 136.325 37.8506ZM126.299 31.3398H134.822C134.708 29.8348 134.318 28.7198 133.651 27.995C133.248 27.5928 132.763 27.2808 132.23 27.0798C131.697 26.8788 131.127 26.7934 130.558 26.829C130.006 26.8104 129.456 26.9042 128.942 27.1046C128.427 27.305 127.959 27.6079 127.566 27.995C126.773 28.778 126.351 29.893 126.299 31.3398Z" fill="#fff"/>
<path d="M141.755 44.702V18.9777C141.753 18.5822 141.83 18.1901 141.981 17.8243C142.131 17.4585 142.353 17.1262 142.633 16.8464C142.913 16.5667 143.245 16.3452 143.611 16.1946C143.977 16.044 144.369 15.9674 144.765 15.9691H162.646V20.8991H147.605V27.0736H158.802V28.995C158.804 29.3902 158.727 29.7818 158.577 30.1474C158.426 30.5129 158.205 30.8451 157.926 31.1247C157.646 31.4044 157.314 31.626 156.949 31.7769C156.583 31.9277 156.192 32.0048 155.796 32.0036H147.605V44.6977L141.755 44.702Z" fill="#fff"/>
<path d="M164.149 15.9691H167.159C167.913 15.9714 168.634 16.2717 169.166 16.8045C169.699 17.3372 169.998 18.059 169.999 18.8118V20.5585H164.149V15.9691ZM164.149 22.4842H167.159C167.912 22.4865 168.633 22.7863 169.165 23.3181C169.697 23.8499 169.997 24.5705 169.999 25.3225V44.702H164.149V22.4842Z" fill="#fff"/>
<path d="M125.879 49.977C126.631 50.5185 126.998 51.4792 126.998 52.859C126.998 54.6756 126.508 55.6013 125.25 55.8633V55.9157C126.771 56.1253 127.312 57.2257 127.312 59.0598C127.312 60.4396 126.945 61.4003 126.229 61.9243C125.512 62.4483 124.359 62.6929 122.769 62.6929C120.724 62.6929 119.012 62.6405 117.614 62.5357C117.404 62.5138 117.352 62.4833 117.352 62.2911V49.5403C117.352 49.3482 117.404 49.3133 117.614 49.2958C118.854 49.2085 120.427 49.1561 122.297 49.1561C123.957 49.1561 125.145 49.4355 125.879 49.977ZM119.623 51.1124V55.0773H121.598C122.839 55.0773 123.677 54.9725 124.097 54.7455C124.516 54.5184 124.743 53.9944 124.743 53.1385C124.743 51.549 124.01 51.1124 122.122 51.1124H119.623ZM119.623 56.7891V60.754H122.716C124.411 60.754 125.075 60.3174 125.075 58.8676C125.075 57.2607 124.342 56.7891 122.751 56.7891H119.623Z" fill="#fff"/>
<path d="M134.315 53.0511C134.508 53.1035 134.595 53.2083 134.595 53.3655V54.431C134.595 54.6231 134.49 54.7105 134.298 54.693H132.708C131.642 54.693 131.345 54.8677 131.345 55.6362V62.3435C131.35 62.3791 131.346 62.4154 131.335 62.4495C131.324 62.4836 131.305 62.5146 131.279 62.5401C131.254 62.5655 131.223 62.5846 131.189 62.596C131.154 62.6074 131.118 62.6106 131.082 62.6055H129.492C129.457 62.6097 129.421 62.6058 129.387 62.5941C129.353 62.5825 129.323 62.5633 129.298 62.5381C129.272 62.5129 129.253 62.4822 129.242 62.4485C129.23 62.4148 129.226 62.3789 129.23 62.3435V55.0948C129.23 54.1166 129.597 53.4703 130.244 53.1909C130.857 52.9342 131.52 52.8207 132.183 52.859C132.899 52.8339 133.616 52.8985 134.315 53.0511Z" fill="#fff"/>
<path d="M138.299 50.1866C138.299 50.9901 137.88 51.3918 137.041 51.3918C136.22 51.3918 135.766 50.9551 135.766 50.1866C135.766 49.4181 136.203 48.9814 137.041 48.9814C137.88 48.9814 138.299 49.3831 138.299 50.1866ZM137.828 52.9464C137.863 52.9412 137.9 52.9445 137.934 52.9558C137.968 52.9672 137.999 52.9864 138.024 53.0118C138.05 53.0372 138.069 53.0682 138.08 53.1023C138.092 53.1365 138.095 53.1728 138.09 53.2084V62.3435C138.095 62.3791 138.092 62.4154 138.08 62.4495C138.069 62.4836 138.05 62.5146 138.024 62.5401C137.999 62.5655 137.968 62.5847 137.934 62.596C137.9 62.6074 137.863 62.6106 137.828 62.6055H136.237C136.202 62.6106 136.166 62.6074 136.131 62.596C136.097 62.5847 136.066 62.5655 136.041 62.5401C136.015 62.5146 135.996 62.4836 135.985 62.4495C135.973 62.4154 135.97 62.3791 135.975 62.3435V53.2084C135.97 53.1728 135.973 53.1365 135.985 53.1023C135.996 53.0682 136.015 53.0372 136.041 53.0118C136.066 52.9864 136.097 52.9672 136.131 52.9558C136.166 52.9445 136.202 52.9412 136.237 52.9464H137.828Z" fill="#fff"/>
<path d="M148.138 49.2608C148.173 49.2557 148.21 49.259 148.244 49.2703C148.278 49.2817 148.309 49.3008 148.335 49.3263C148.36 49.3517 148.379 49.3827 148.39 49.4168C148.402 49.4509 148.405 49.4872 148.4 49.5228V62.0072C148.404 62.0521 148.399 62.0974 148.386 62.1403C148.372 62.1833 148.35 62.223 148.32 62.2572C148.291 62.2915 148.255 62.3194 148.215 62.3395C148.174 62.3596 148.13 62.3713 148.085 62.374C146.85 62.5806 145.599 62.6857 144.346 62.6884C142.528 62.6884 141.55 62.4614 140.851 61.6928C140.152 60.9243 140.03 59.8239 140.03 57.7628C140.03 55.8065 140.292 54.4965 140.816 53.8328C141.358 53.169 142.424 52.8372 144.031 52.8372C144.778 52.8289 145.525 52.8639 146.268 52.942V49.501C146.263 49.4654 146.266 49.4291 146.278 49.395C146.289 49.3609 146.308 49.3298 146.334 49.3044C146.359 49.279 146.39 49.2598 146.424 49.2485C146.458 49.2371 146.495 49.2339 146.53 49.239L148.138 49.2608ZM146.286 54.693H144.381C143.42 54.693 142.808 54.8851 142.546 55.2694C142.284 55.6537 142.161 56.4921 142.161 57.7846C142.161 59.0772 142.284 59.8632 142.528 60.2649C142.773 60.6667 143.402 60.8588 144.328 60.8588C144.983 60.8557 145.637 60.809 146.286 60.7191V54.693Z" fill="#fff"/>
<path d="M158.374 53.1734C158.42 53.1705 158.466 53.1778 158.508 53.1946C158.551 53.2114 158.59 53.2373 158.621 53.2706C158.653 53.3039 158.677 53.3438 158.692 53.3873C158.706 53.4309 158.711 53.4771 158.706 53.5227V62.0465C158.706 63.3565 158.601 64.1032 158.269 64.8019C157.797 65.7975 156.644 66.1818 154.564 66.1818C153.606 66.1853 152.648 66.1211 151.698 65.9897C151.629 65.9841 151.565 65.9518 151.519 65.8996C151.474 65.8474 151.45 65.7794 151.454 65.7102V64.6797C151.449 64.6441 151.452 64.6078 151.463 64.5736C151.475 64.5395 151.494 64.5085 151.519 64.4831C151.545 64.4577 151.576 64.4385 151.61 64.4271C151.644 64.4158 151.68 64.4125 151.716 64.4177H154.442C155.316 64.4177 155.875 64.2954 156.189 64.0334C156.504 63.7714 156.626 63.3172 156.626 62.6229V62.5356C155.886 62.6477 155.138 62.7002 154.39 62.6928C152.782 62.6928 151.716 62.3609 151.174 61.6797C150.632 60.9985 150.37 59.671 150.37 57.6973C150.37 55.7235 150.65 54.4834 151.209 53.8371C151.768 53.1908 152.957 52.859 154.704 52.859C155.935 52.8476 157.163 52.9529 158.374 53.1734ZM156.591 54.693H154.582C153.656 54.693 153.079 54.8851 152.834 55.2869C152.59 55.6886 152.467 56.5095 152.467 57.7672C152.467 59.0248 152.59 59.8806 152.852 60.2649C153.114 60.6492 153.726 60.8413 154.687 60.8413C155.323 60.85 155.96 60.815 156.591 60.7365V54.693Z" fill="#fff"/>
<path d="M168.068 53.8197C168.714 54.5707 168.889 55.6187 168.907 57.5925V58.1165C168.907 58.4658 168.784 58.5881 168.313 58.5881H162.777C162.777 59.5138 162.952 60.1252 163.214 60.4221C163.476 60.7191 164.088 60.8588 164.922 60.8588H167.911C167.946 60.8537 167.983 60.8569 168.017 60.8683C168.051 60.8796 168.082 60.8988 168.107 60.9242C168.133 60.9497 168.152 60.9807 168.163 61.0148C168.175 61.0489 168.178 61.0852 168.173 61.1208V62.2037C168.177 62.2749 168.154 62.3449 168.108 62.4C168.063 62.455 167.999 62.4909 167.928 62.5007C166.891 62.6379 165.846 62.7021 164.8 62.6928C163.109 62.6928 161.991 62.3784 161.449 61.7321C160.908 61.0859 160.628 59.7584 160.628 57.8021C160.628 55.8458 160.89 54.5009 161.432 53.8721C161.973 53.2433 163.109 52.8939 164.8 52.8939C166.491 52.8939 167.439 53.0686 168.068 53.8197ZM163.197 55.1821C162.935 55.4965 162.789 56.1253 162.76 57.0685H166.757C166.757 56.1253 166.617 55.4965 166.355 55.1821C166.093 54.8677 165.586 54.693 164.8 54.693C164.014 54.693 163.454 54.8502 163.197 55.1821Z" fill="#fff"/>
</svg>
