<svg width="135" height="54" viewBox="0 0 135 54" fill="none" xmlns="http://www.w3.org/2000/svg">
<path fill-rule="evenodd" clip-rule="evenodd" d="M30.4284 2.48718C31.6252 5.66473 27.858 8.96369 26.1166 8.31847C25.3985 8.05136 24.6769 7.72181 24.0352 7.78425C23.6713 7.85037 23.3202 7.97329 22.9945 8.14849L23.9866 9.44934C23.9866 9.44934 26.179 10.7467 27.4243 11.5307C27.5009 11.5806 27.5867 11.6149 27.6766 11.6316C27.7664 11.6482 27.8587 11.647 27.9482 11.6278C31.8125 10.7502 32.9538 4.48876 30.4284 2.48718Z" fill="#6772E5"/>
<path fill-rule="evenodd" clip-rule="evenodd" d="M35.5208 37.6589C24.9752 35.6087 14.1938 24.1577 20.5662 23.4848C24.4549 23.072 24.7289 18.3507 30.3452 20.8865C30.5025 20.9573 30.6725 20.9954 30.8449 20.9986C31.0174 21.0018 31.1887 20.97 31.3485 20.9052C31.5084 20.8403 31.6534 20.7438 31.7749 20.6213C31.8964 20.4989 31.9918 20.3531 32.0553 20.1928L33.2729 17.3205C33.5504 16.5157 33.5019 15.2911 32.926 14.698C32.2323 14.0042 30.6574 14.1741 29.9393 13.744C28.2603 12.7449 23.9727 10.0149 23.6952 9.85531C23.4177 9.69574 22.7274 8.41917 22.4464 8.27695C22.0066 8.03685 21.5411 7.84717 21.0588 7.71151C20.3471 7.55881 19.6065 7.61421 18.9254 7.87108C16.3029 8.65853 6.30887 11.5308 10.5063 0.7771C10.5063 0.7771 0.966706 9.13724 10.0484 13.4873C10.1245 13.5251 10.1893 13.5824 10.2362 13.6533C10.2831 13.7243 10.3104 13.8063 10.3153 13.8912C10.3203 13.9761 10.3027 14.0608 10.2643 14.1366C10.226 14.2125 10.1682 14.2769 10.097 14.3233C7.21773 16.0855 -3.06073 23.0858 0.893859 38.2416C3.63432 43.393 11.1064 47.6078 21.1525 50.5252C24.6769 49.1619 33.71 41.6794 35.5208 37.6589Z" fill="#6772E5"/>
<path opacity="0.2" fill-rule="evenodd" clip-rule="evenodd" d="M20.5627 23.4847C24.4514 23.0719 24.7254 18.3507 30.3417 20.8865C30.499 20.9572 30.669 20.9953 30.8414 20.9985C31.0139 21.0017 31.1852 20.9699 31.345 20.9051C31.5049 20.8402 31.6499 20.7437 31.7714 20.6212C31.8929 20.4988 31.9883 20.353 32.0518 20.1927L33.2694 17.3204C33.547 16.5156 33.4984 15.2911 32.9226 14.6979C32.534 14.3059 31.8888 14.1949 31.2193 14.0839C34.1783 15.2286 31.4968 19.2873 30.6122 19.263C29.5716 19.2248 27.7746 17.0012 25.6031 16.9631C23.4315 16.9249 22.1688 20.7581 19.2723 21.0252C14.839 21.4415 14.5684 15.5686 11.8314 18.1217C9.09441 20.6748 0.55735 39.1331 21.1594 50.5077C24.6977 49.1583 33.7169 41.6793 35.5277 37.6726C24.9752 35.6086 14.1903 24.1577 20.5627 23.4847Z" fill="#224099"/>
<path fill-rule="evenodd" clip-rule="evenodd" d="M30.4284 2.48718C31.6252 5.66473 27.858 8.96369 26.1166 8.31847C25.3985 8.05136 24.6769 7.72181 24.0352 7.78425C23.6713 7.85037 23.3202 7.97329 22.9945 8.14849L23.9866 9.44934C23.9866 9.44934 26.179 10.7467 27.4243 11.5307C27.5009 11.5806 27.5867 11.6149 27.6766 11.6316C27.7664 11.6482 27.8587 11.647 27.9482 11.6278C31.8125 10.7502 32.9538 4.48876 30.4284 2.48718Z" fill="#6772E5"/>
<path fill-rule="evenodd" clip-rule="evenodd" d="M35.5208 37.6589C24.9752 35.6087 14.1938 24.1577 20.5662 23.4848C24.4549 23.072 24.7289 18.3507 30.3452 20.8865C30.5025 20.9573 30.6725 20.9954 30.8449 20.9986C31.0174 21.0018 31.1887 20.97 31.3485 20.9052C31.5084 20.8403 31.6534 20.7438 31.7749 20.6213C31.8964 20.4989 31.9918 20.3531 32.0553 20.1928L33.2729 17.3205C33.5504 16.5157 33.5019 15.2911 32.926 14.698C32.2323 14.0042 30.6574 14.1741 29.9393 13.744C28.2603 12.7449 23.9727 10.0149 23.6952 9.85531C23.4177 9.69574 22.7274 8.41917 22.4464 8.27695C22.0066 8.03685 21.5411 7.84717 21.0588 7.71151C20.3471 7.55881 19.6065 7.61421 18.9254 7.87108C16.3029 8.65853 6.30887 11.5308 10.5063 0.7771C10.5063 0.7771 0.966706 9.13724 10.0484 13.4873C10.1245 13.5251 10.1893 13.5824 10.2362 13.6533C10.2831 13.7243 10.3104 13.8063 10.3153 13.8912C10.3203 13.9761 10.3027 14.0608 10.2643 14.1366C10.226 14.2125 10.1682 14.2769 10.097 14.3233C7.21773 16.0855 -3.06073 23.0858 0.893859 38.2416C3.63432 43.393 11.1064 47.6078 21.1525 50.5252C24.6769 49.1619 33.71 41.6794 35.5208 37.6589Z" fill="#6772E5"/>
<path opacity="0.2" fill-rule="evenodd" clip-rule="evenodd" d="M20.5627 23.4847C24.4514 23.0719 24.7254 18.3507 30.3417 20.8865C30.499 20.9572 30.669 20.9953 30.8414 20.9985C31.0139 21.0017 31.1852 20.9699 31.345 20.9051C31.5049 20.8402 31.6499 20.7437 31.7714 20.6212C31.8929 20.4988 31.9883 20.353 32.0518 20.1927L33.2694 17.3204C33.547 16.5156 33.4984 15.2911 32.9226 14.6979C32.534 14.3059 31.8888 14.1949 31.2193 14.0839C34.1783 15.2286 31.4968 19.2873 30.6122 19.263C29.5716 19.2248 27.7746 17.0012 25.6031 16.9631C23.4315 16.9249 22.1688 20.7581 19.2723 21.0252C14.839 21.4415 14.5684 15.5686 11.8314 18.1217C9.09441 20.6748 0.55735 39.1331 21.1594 50.5077C24.6977 49.1583 33.7169 41.6793 35.5277 37.6726C24.9752 35.6086 14.1903 24.1577 20.5627 23.4847Z" fill="#224099"/>
<g opacity="0.2">
<path opacity="0.2" fill-rule="evenodd" clip-rule="evenodd" d="M35.5174 37.6553C25.6448 35.7335 15.5467 25.5556 19.5603 23.7344C17.3957 24.6433 14.6274 28.2926 14.6274 34.3737C14.6274 40.812 18.7902 47.5556 21.149 50.5077C24.5139 49.2242 32.9053 42.3384 35.2295 38.2173C35.4168 37.8704 35.5139 37.6588 35.5139 37.6588L35.5174 37.6553Z" fill="#224099"/>
</g>
<path d="M55.6232 30.9567H58.7765C58.4093 32.5775 57.4679 34.0106 56.1262 34.9911C54.8219 35.9601 53.1822 36.4446 51.2072 36.4446C48.809 36.4446 46.9381 35.6664 45.5945 34.11C44.2485 32.5929 43.5756 30.4272 43.5756 27.6127C43.5756 24.9208 44.2266 22.8186 45.5286 21.3062C46.8745 19.7474 48.7466 18.9693 51.1448 18.9716C53.6679 18.9716 55.6232 19.7289 57.0108 21.2437C58.3544 22.7978 59.0274 24.9624 59.0297 27.7376V28.4314C59.0411 28.5819 59.021 28.7331 58.9707 28.8754H48.054C48.0956 30.1797 48.4009 31.1441 48.9975 31.7754C49.5942 32.4068 50.3643 32.7849 51.4605 32.7849C52.0983 32.8046 52.7297 32.6524 53.2886 32.3443C53.4199 32.2982 53.5386 32.2222 53.6355 32.1223L53.9824 31.7754C54.0969 31.5728 54.2618 31.4031 54.4611 31.2828C54.802 31.0491 55.2105 30.9345 55.6232 30.9567ZM47.3359 25.7533H54.1142C54.024 24.5554 53.7141 23.6708 53.1845 23.0996C52.8648 22.7789 52.4803 22.5301 52.0568 22.3698C51.6333 22.2095 51.1805 22.1414 50.7285 22.1699C50.2878 22.1535 49.8483 22.2275 49.4372 22.3874C49.0262 22.5472 48.6522 22.7896 48.3384 23.0996C47.7163 23.724 47.3821 24.6086 47.3359 25.7533Z" fill="#6772E5"/>
<path d="M59.3767 36.1602V32.7607L69.0897 22.2845H62.3982C61.8041 22.2894 61.232 22.0601 60.8059 21.6462C60.3584 21.2438 60.0705 20.099 60.0705 20.099V18.4686H74.64V22.2845L65.2149 32.3444H74.9869V36.1602H59.3767Z" fill="#6772E5"/>
<path d="M75.6807 36.1602V15.6692C75.6789 15.3543 75.7395 15.0423 75.8592 14.751C75.9788 14.4598 76.155 14.1952 76.3777 13.9726C76.6003 13.7499 76.8649 13.5737 77.1561 13.4541C77.4474 13.3344 77.7594 13.2738 78.0743 13.2756H84.6653C88.1689 13.2756 90.7868 14.2007 92.5189 16.0508C94.2465 18.0049 95.1114 20.8957 95.1137 24.7231C95.1425 26.6112 94.8262 28.4886 94.1806 30.263C93.6021 31.7713 92.6394 33.1023 91.3881 34.1239C90.4601 34.8522 89.3999 35.3941 88.266 35.7196C87.2022 36.0319 85.5834 36.188 83.4095 36.188L75.6807 36.1602ZM80.1903 31.9975H83.9472C86.091 31.9975 87.6659 31.4286 88.6719 30.2908C89.6316 29.2385 90.1126 27.4011 90.115 24.7786C90.115 22.2347 89.6524 20.3742 88.7274 19.1971C87.8532 18.0177 86.4506 17.4279 84.5196 17.4279H80.1903V31.9975Z" fill="#6772E5"/>
<path d="M108.351 30.9567H111.504C111.137 32.5775 110.196 34.0106 108.854 34.9911C107.55 35.9601 105.91 36.4446 103.935 36.4446C101.537 36.4446 99.6661 35.6664 98.3225 34.11C96.9766 32.5929 96.3036 30.4272 96.3036 27.6127C96.3036 24.9208 96.9546 22.8186 98.2566 21.3062C99.6026 19.7474 101.475 18.9693 103.873 18.9716C106.394 18.9716 108.349 19.7289 109.739 21.2437C111.082 22.7978 111.755 24.9624 111.758 27.7376V28.4314C111.769 28.5819 111.749 28.7331 111.699 28.8754H100.782C100.824 30.1797 101.129 31.1441 101.726 31.7754C102.322 32.4068 103.092 32.7849 104.188 32.7849C104.826 32.8046 105.458 32.6524 106.017 32.3443C106.148 32.2982 106.267 32.2222 106.364 32.1223L106.71 31.7754C106.825 31.5728 106.99 31.4031 107.189 31.2828C107.53 31.0491 107.939 30.9345 108.351 30.9567ZM100.286 25.7533H107.054C106.964 24.5554 106.654 23.6708 106.124 23.0996C105.804 22.7789 105.42 22.5301 104.996 22.3698C104.573 22.2095 104.12 22.1414 103.668 22.1699C103.229 22.1563 102.792 22.2327 102.383 22.3944C101.974 22.556 101.603 22.7996 101.292 23.11C100.663 23.7275 100.328 24.6086 100.286 25.7533Z" fill="#6772E5"/>
<path d="M112.798 36.1602V15.6692C112.79 15.3533 112.846 15.0389 112.962 14.745C113.078 14.4512 113.253 14.1838 113.475 13.959C113.685 13.7355 113.939 13.5583 114.222 13.4389C114.504 13.3194 114.809 13.2603 115.116 13.2652H129.102V17.428H117.308V22.2845H126.327V23.7727C126.333 24.0806 126.274 24.3863 126.155 24.6701C126.035 24.9539 125.858 25.2095 125.633 25.4204C125.407 25.6442 125.139 25.8207 124.845 25.9398C124.55 26.0589 124.234 26.1182 123.916 26.1142H117.325V36.1741L112.798 36.1602Z" fill="#6772E5"/>
<path d="M130.49 13.2652H132.807C133.1 13.2636 133.389 13.3247 133.656 13.4444C133.923 13.564 134.161 13.7395 134.354 13.959C134.78 14.4078 135.011 15.0059 134.999 15.6241V17.0811H130.49V13.2652ZM130.49 18.4686H132.807C133.097 18.4653 133.384 18.5225 133.651 18.6366C133.917 18.7507 134.157 18.9191 134.354 19.1312C134.563 19.3413 134.728 19.5909 134.838 19.8656C134.949 20.1402 135.004 20.4343 134.999 20.7304V36.1602H130.49V18.4686Z" fill="#6772E5"/>
<path d="M106.18 40.0627C106.332 40.0905 106.402 40.1599 106.402 40.2847V41.145C106.402 41.2977 106.332 41.3809 106.194 41.3809H102.988C101.948 41.3809 101.438 41.7278 101.438 42.4494V42.6714C101.438 43.2819 101.656 43.6149 102.364 43.9063L105.181 45.0303C106.471 45.5437 106.915 46.2513 106.915 47.625V48.0552C106.915 49.0542 106.54 49.7341 105.805 50.1088C105.07 50.4834 104.279 50.5806 103.099 50.5806C101.958 50.5802 100.818 50.4968 99.6893 50.3308C99.6313 50.3214 99.5791 50.2904 99.5431 50.2441C99.507 50.1977 99.4899 50.1395 99.495 50.081V49.2485C99.4903 49.2182 99.4928 49.1873 99.5022 49.1582C99.5117 49.1291 99.5279 49.1027 99.5496 49.081C99.5712 49.0594 99.5977 49.0432 99.6268 49.0337C99.6559 49.0242 99.6868 49.0217 99.717 49.0265H103.585C104.612 49.0265 105.125 48.6796 105.125 47.9858V47.7499C105.125 47.0839 104.875 46.737 104.084 46.4178L101.091 45.2384C99.9946 44.836 99.6199 44.0451 99.6199 42.6575V42.3384C99.6199 40.257 101.16 39.8268 103.363 39.8268C104.306 39.8373 105.248 39.9162 106.18 40.0627Z" fill="#6772E5"/>
<path d="M118.612 42.838C118.765 42.838 118.793 42.8796 118.775 43.0461L117.572 49.0959C117.443 49.7481 117.263 50.1366 117.044 50.3309C116.667 50.537 116.237 50.624 115.81 50.5806C115.116 50.5806 114.686 50.4974 114.505 50.3447C114.325 50.1921 114.158 49.7758 113.992 49.0959L113.201 45.5992L112.41 49.0959C112.257 49.7897 112.091 50.1921 111.897 50.3447C111.702 50.4974 111.272 50.5806 110.592 50.5806C110.165 50.624 109.734 50.537 109.357 50.3309C109.149 50.1505 108.969 49.7481 108.83 49.0959L107.623 43.0461C107.609 42.9073 107.664 42.838 107.789 42.838H109.177C109.288 42.838 109.302 42.8796 109.343 43.0461L110.384 48.7213C110.453 49.0682 110.523 49.1237 110.689 49.1237C110.856 49.1237 110.897 49.0959 110.995 48.7213L112.313 43.2681C112.341 43.1293 112.41 43.06 112.507 43.06H113.895C113.992 43.06 114.061 43.1293 114.103 43.2681L115.421 48.7213C115.49 49.0959 115.532 49.1237 115.712 49.1237C115.893 49.1237 115.948 49.0682 116.018 48.7213L117.058 43.0461C117.086 42.9073 117.138 42.838 117.221 42.838H118.612Z" fill="#6772E5"/>
<path d="M125.63 45.0441V49.8729C125.636 49.9615 125.612 50.0495 125.562 50.1226C125.511 50.1957 125.437 50.2496 125.352 50.2753C124.33 50.5152 123.28 50.6178 122.23 50.5806C121.162 50.5806 120.413 50.4279 119.969 50.1365C119.525 49.8451 119.303 49.2068 119.303 48.2633C119.303 46.5843 120.121 46.0571 121.939 46.0571H123.951V45.3355C123.951 44.5585 123.493 44.2255 122.383 44.2255H120.107C119.941 44.2255 119.899 44.1838 119.899 44.0173V43.1709C119.899 43.0044 119.941 42.9905 120.094 42.9489C120.849 42.8178 121.616 42.7574 122.383 42.7685C124.756 42.7685 125.63 43.49 125.63 45.0441ZM123.951 47.2642H122.036C121.273 47.2642 120.968 47.514 120.968 48.1939C120.968 48.971 121.315 49.1791 122.355 49.1791C122.887 49.1908 123.418 49.1395 123.937 49.0265L123.951 47.2642Z" fill="#6772E5"/>
<path d="M133.314 43.5457C133.772 44.0591 134.007 45.072 134.007 46.6122C134.007 48.1524 133.799 49.2486 133.369 49.7897C132.939 50.3309 132.093 50.5807 130.816 50.5807C130.229 50.5857 129.641 50.5579 129.057 50.4974V53.061C129.057 53.2136 128.988 53.283 128.849 53.283H127.573C127.434 53.283 127.364 53.2136 127.364 53.061V43.2959C127.364 43.1433 127.448 43.0461 127.628 43.0184C128.604 42.8549 129.591 42.7714 130.58 42.7686C131.954 42.7686 132.859 43.0323 133.314 43.5457ZM129.043 44.2394V49.0405C129.54 49.0974 130.039 49.1252 130.538 49.1237C131.305 49.1237 131.787 48.9711 131.995 48.6658C132.204 48.3605 132.315 47.6945 132.315 46.6816C132.315 45.6686 132.217 45.0304 132.023 44.7112C131.829 44.3921 131.357 44.2394 130.636 44.2394H129.043Z" fill="#6772E5"/>
</svg>
